<?xml version="1.0" encoding="UTF-8"?>
<svg id="Layer_1" data-name="Layer 1" xmlns="http://www.w3.org/2000/svg" viewBox="0 0 208.48 173.55">
  <path d="M85.64,145.46c-1.13,1.31-3.5-1.09-3.3-2.68,1.05-7.99-.54-15.19-2.32-22.4l-5.71,22.53c-.9-9.13,2.28-16.51,3.43-25.48-1.22-.75-3.22-1.35-5.35-.41,1.28.89,2.43,2.04,2.49,3.23.07,1.37-1.36,2.67-2.87,2.98l-8.65,1.78c.23,3.38-.75,8.06.92,11.13l6.89,5.86c1.26,1.07.26,3-.8,3.93-.66.58-2.04,1.05-3.47.24-.93-.53-.88-2.33-1.01-3.74-3.03-.96-8.58-.83-11.14,1.5-.83.76-.49,3.8-2.83,3.36-1.27-.24-3.32-1.38-2.42-3.75,1.95-5.19,11.27-4.28,7.99-18.73-5.48-.26-11.89-1.59-13.9-7.07-3.05-8.35-5.08-17.05-5.74-26.06,3.21-4.32,2.39-9.33,5.34-9.75,7.45-1.07,12.31,28.09,2.79,27.22-1.6-.15-2.43-2.35-3.09-4.55-1.25,4.74.24,9.46,2.9,14.4,2.32-2.88,5.06-3.6,9.49-4.11-4.78-12.68-2.38-27.41,1.92-39.68-3.72-4.78-7.26-10.76-5.04-17.26,1.75-5.11,6.75-10.32,13.25-10.23,4.8.07,9.09,1.64,11.79,4.81,5.04,5.92,3.68,17.07-3.85,22.69-4.25,3.17-8.59,2.65-14.63,1.21l7.55,14.55c5.56,10.71,15.95-3.32,22.52,6.76l7.59.06c.84,7.81,1.97-.54,10.29,1,.26-2.38,1.03-4.82-.57-7.23-.26,1.71-.24,3.35-1.2,4.1-1.02.79-4.84.45-4.58-.74l6.89-32.23,4.39,1.38c-1.27,2.46,1.62,5,1.75,6.73l-3.01,18.74.87,8.19c2.26.43,4.24,1.59,5.96,3.32.68.68,2.94.53,3.34,1.27.42.8.5,3.01-.07,3.72-.54.66-2.17.95-3.8,1.02l-.12,37.53h-4.99s.22-37.61.22-37.61l-25.02-.18.21,24.75c.04,4.37,2.12,9.89-1.32,13.89ZM74.99,53.33c-3.64-3.56-9.98-4.98-14.22-2.55-5.88,3.38-8.63,9.76-6.54,15.69,1.82,5.18,6.8,9.79,13.11,8.93,4.82-.66,8.46-4.78,9.66-7.99,1.86-4.97,1.5-10.64-2.01-14.08ZM103.13,95.14l6.96-30.49c-3.21.49-2.55,2.86-2.84,4.79-1.32,8.73-5.37,16.46-4.12,25.7ZM112.47,72.58c.19-.73.07-1.65-.21-2.05-.22-.31-.86-.67-1.6-.43l-4.08,20.55c.34.11.85-.1,1.24-.38l4.65-17.7ZM43.07,83.77c-3.01,1.13,1.29,25.75,4.52,23.47,4.87-3.42.62-25.4-4.52-23.47ZM76.68,101.98l2.23-.38c.4-.07.92-1.01.35-1.8l-11.71,1.28c-2.81.31-5.29-.83-6.06-3.32l-4.42-14.35c-2.54,9.2-2.95,18.58-.41,28.62l22.95,1.78c1.49.12,1.71,2.52,2.42,4.33.92-3.57.18-7.09.3-11.27-1.93-.02-3.74.24-5.64-.34s-1.9-3.1-.8-4.07c.14-.12.3-.39.79-.47ZM71.18,97.63c-6.35-2.02-7.54-7.05-10.94-12.67-.12,4.92,2.04,8.9,4.22,13.04,1.34,1.04,4.73,1.24,6.72-.37ZM95.17,101.13c.44-.66.37-1.36,0-1.97l-10.72.6c-.77.04-1.84,1-1.86,1.99l12.57-.62ZM77.23,103.13l-.43.23c-.23.27.26,1.97,1.12,1.96l41.56-.56c0-.99-.98-1.99-1.88-1.98l-40.38.35ZM83.44,106.74v37h2.12v-37h-2.12ZM115.3,144.54l.16-37.83-1.67.02-.38,23.02c-.08,4.74-3.45,10.91,1.89,14.79ZM73.86,120.62c-3.15-4-7.27-3.52-11.32-3.92-5.1-.51-10.84-1.36-14.91,3.37,8.2,4.34,17.66,3.42,26.23.55ZM61.56,124.74h-2v12h2v-12Z"/>
</svg>