<?xml version="1.0" encoding="UTF-8"?>
<svg id="Layer_1" data-name="Layer 1" xmlns="http://www.w3.org/2000/svg" viewBox="0 0 162.81 153.13">
  <path d="M106.67,93.51c-2.48,15.37-8.37,28.69-17.02,40.84-1.9-.67-1.5-2.51-.63-3.9,7.93-12.75,13.87-26.43,15.2-41.6l2.3-26.21c-5.45,6.98-8.63,14.45-9.12,23.19-.31,5.44-8.2.33,3.54-20.35l4.72-8.31c1.66-2.92,4.18-5.17,4.54-8.57-5.23-1.54-7.89-5.05-8.36-10.47-.68-7.84,5.04-16.89,13.66-18.29,9.31-1.52,17.19,8.12,15.72,16.75-1.54,9.02-9.5,12.18-17.48,13.09-2.33.26-2.22,6.06-.55,7.49,2.92,11.74,5.86,22.25,9.92,33.92-8.26-3.91-7.59-21.02-13.14-30.48,0,9.19-3.71,19.02-1.56,28.2,1.94,8.32,8.65,15.8,9.08,25.21.33,7.24.81,14.04,4.42,21.15-4.86-.57-5.95-5.5-6.22-9.46-.78-11.21-2.12-21.92-9.02-32.19ZM119.44,45.57c6.39-2.24,10.28-7.86,8.68-13.77-1.34-4.94-5.7-9.89-12.2-9.19-7.88.86-13.54,11.31-10.07,18.87,2.3,5.02,8.56,5.85,13.59,4.09Z"/>
  <path d="M66.01,133.63c-4.49.82-6.7-3.51-9.34-5.82-7.04-6.16-9.61-14-9.76-23.68l-11.09,24.19c-1.23,2.69-2.51,5.8-5.47,7.03-.33-4.19,2.8-6.5,3.63-9.82,2.7-10.75,9.47-19.53,12.76-29.9,2.54-8.02-.03-17.27.56-25.92-4.08,7.2-4.76,20.51-13.31,22.42,6.01-9.08,8.5-18.1,10.68-28.02.78-3.55,2.83-6.93,1.04-10.62-7.78,1.01-15.66-2.89-17.43-10.5-1.39-5.99,1.79-11.81,5.96-14.89,4.61-3.41,10.97-5.03,16.3-2.19s7.37,8.92,6.96,14.38-3.35,10.37-8.87,12.74c-.16,3.28,1.23,5.51,2.84,7.9,5.3,7.88,8.5,16.17,9.07,25.86,2.94.03,4.7,2.14,6.8,2.85,1.44-.35,5.07-3.61,6.78-1.5,4.2,5.18,5.23,12.19,7.26,18.5l-18.57,11.73c-2.64,1.67-6.44,2.13-7.63-1.13l-5.3-14.54c.02,5.87.54,12.42,4.11,17.76l12.03,13.18ZM39.61,50.21c4.28,1.13,8.04.89,10.88-1.61,6.19-5.48,5.18-17-1.62-20.55-4.15-2.17-7.98-.84-11.73,1.49-4.19,2.59-6.66,6.77-6.27,11.69.33,4.12,3.92,7.72,8.75,8.99ZM55.44,95.05l2.49-5.55c-.6-8.52-2.42-16.71-7.36-23.79l-.2,28.08c-.69,1.71-1.22,3.59.47,5.24.67-1.74,3.89-2.39,4.6-3.98ZM67.65,100.38l3.58-1.57c1.6-2.86,2.44-5.99,1.67-9.03l-18.99,9.73c1.82,3.45,4.52,3.91,7.08,4.18,2.85.31,4.1-.57,6.66-3.31ZM56.21,105l4.3,12.04,18.21-11.9-3.84-10.39c-.5,3.49-1.97,5.35-3.68,7.89-.13,1.21.01,2.61-.71,3.07-1.22.76-3.32-.18-4.17-.13-3.41.23-6.26.88-10.11-.58ZM57.82,117.01c.17,0,1.02-.6.54-1.5-2.14-4.03-2.18-8.98-5.32-12.58.09-.07-.27.15-.68.59,1.97,4.37,2.45,9.52,5.46,13.49Z"/>
</svg>